# xmcd CD database file
#
# Track frame offsets:
#	150
#	19192
#	38027
#	60305
#	84276
#	108952
#	127774
#	149224
#	166478
#	188526
#	214508
#
# Disc length: 3175 seconds
#
# Revision: 0
# Processed by: cddbd v1.5.1PL0 Copyright (c) Steve Scherf et al.
# Submitted via: CDex 1.51
#
DISCID=880c650b
DTITLE=越智順子 - What do you want for "LOVE"?
DYEAR=2002
DGENRE=Jazz
TTITLE0=Fever
TTITLE1=It Might As Well Be Spring
TTITLE2=Tell Me Something Good
TTITLE3=Ribbon In The Sky
TTITLE4=Do Right Woman, Do Right Man
TTITLE5=Dona Dona
TTITLE6=Mercy, Mercy, Mercy
TTITLE7=Trust In Me
TTITLE8=It's Too Late
TTITLE9=You'd Be So Nice To Come Home To
TTITLE10=What You Won't Do For Love
EXTD=YEAR: 2002
EXTT0=
EXTT1=
EXTT2=
EXTT3=
EXTT4=
EXTT5=
EXTT6=
EXTT7=
EXTT8=
EXTT9=
EXTT10=
PLAYORDER=
